<?xml version="1.0" encoding="UTF-8" standalone="no"?>
<svg width="55px" height="26px" viewBox="0 0 55 26" version="1.1" xmlns="http://www.w3.org/2000/svg" xmlns:xlink="http://www.w3.org/1999/xlink">
    <!-- Generator: Sketch 49.3 (51167) - http://www.bohemiancoding.com/sketch -->
    <title>Group</title>
    <desc>Created with Sketch.</desc>
    <defs></defs>
    <g id="Page-1" stroke="none" stroke-width="1" fill="none" fill-rule="evenodd">
        <g id="Group">
            <rect id="Rectangle" fill="#54A3FD" x="0" y="0" width="55" height="26" rx="5"></rect>
            <path d="M10.5029297,9.62597656 C9.70539966,9.62597656 9.08789281,9.92561549 8.65039062,10.5249023 C8.21288844,11.1241892 7.99414062,11.9593045 7.99414062,13.0302734 C7.99414062,15.2588002 8.83039528,16.3730469 10.5029297,16.3730469 C11.2047561,16.3730469 12.0546825,16.1975929 13.0527344,15.8466797 L13.0527344,17.6240234 C12.2324178,17.965822 11.3164113,18.1367188 10.3046875,18.1367188 C8.85090419,18.1367188 7.73893614,17.6958052 6.96875,16.8139648 C6.19856386,15.9321245 5.81347656,14.6663494 5.81347656,13.0166016 C5.81347656,11.9775339 6.00260228,11.067224 6.38085938,10.2856445 C6.75911647,9.5040651 7.30256807,8.90478724 8.01123047,8.48779297 C8.71989287,8.0707987 9.55045097,7.86230469 10.5029297,7.86230469 C11.4736377,7.86230469 12.4488883,8.09700286 13.4287109,8.56640625 L12.7451172,10.2890625 C12.3714174,10.1113272 11.9954446,9.95638087 11.6171875,9.82421875 C11.2389304,9.69205663 10.8675148,9.62597656 10.5029297,9.62597656 Z M23.4707031,12.9072266 C23.4707031,14.5524171 23.0024461,15.8124956 22.065918,16.6875 C21.1293898,17.5625044 19.7770271,18 18.0087891,18 L15.1787109,18 L15.1787109,8.00585938 L18.3164062,8.00585938 C19.9479248,8.00585938 21.2148392,8.43651913 22.1171875,9.29785156 C23.0195358,10.159184 23.4707031,11.362297 23.4707031,12.9072266 Z M21.2695312,12.9619141 C21.2695312,10.815419 20.3216241,9.7421875 18.4257812,9.7421875 L17.2978516,9.7421875 L17.2978516,16.25 L18.2070312,16.25 C20.2487081,16.25 21.2695312,15.1539823 21.2695312,12.9619141 Z M29.7871094,9.62597656 C28.9895793,9.62597656 28.3720725,9.92561549 27.9345703,10.5249023 C27.4970681,11.1241892 27.2783203,11.9593045 27.2783203,13.0302734 C27.2783203,15.2588002 28.114575,16.3730469 29.7871094,16.3730469 C30.4889358,16.3730469 31.3388622,16.1975929 32.3369141,15.8466797 L32.3369141,17.6240234 C31.5165975,17.965822 30.600591,18.1367188 29.5888672,18.1367188 C28.1350839,18.1367188 27.0231158,17.6958052 26.2529297,16.8139648 C25.4827435,15.9321245 25.0976562,14.6663494 25.0976562,13.0166016 C25.0976562,11.9775339 25.286782,11.067224 25.6650391,10.2856445 C26.0432962,9.5040651 26.5867478,8.90478724 27.2954102,8.48779297 C28.0040726,8.0707987 28.8346307,7.86230469 29.7871094,7.86230469 C30.7578174,7.86230469 31.733068,8.09700286 32.7128906,8.56640625 L32.0292969,10.2890625 C31.6555971,10.1113272 31.2796243,9.95638087 30.9013672,9.82421875 C30.5231101,9.69205663 30.1516945,9.62597656 29.7871094,9.62597656 Z" id="CDC" fill="#FFFFFF"></path>
            <path d="M49,11.0546875 C49,11.1692714 48.9322923,11.2942702 48.796875,11.4296875 L45.9609375,14.1953125 L46.6328125,18.1015625 C46.6380209,18.138021 46.640625,18.1901038 46.640625,18.2578125 C46.640625,18.367188 46.6132815,18.459635 46.5585938,18.5351562 C46.503906,18.6106775 46.4244797,18.6484375 46.3203125,18.6484375 C46.2213537,18.6484375 46.117188,18.6171878 46.0078125,18.5546875 L42.5,16.7109375 L38.9921875,18.5546875 C38.8776036,18.6171878 38.773438,18.6484375 38.6796875,18.6484375 C38.570312,18.6484375 38.4882815,18.6106775 38.4335938,18.5351562 C38.378906,18.459635 38.3515625,18.367188 38.3515625,18.2578125 C38.3515625,18.2265623 38.3567708,18.1744795 38.3671875,18.1015625 L39.0390625,14.1953125 L36.1953125,11.4296875 C36.0651035,11.2890618 36,11.164063 36,11.0546875 C36,10.8619782 36.1458319,10.7421877 36.4375,10.6953125 L40.359375,10.125 L42.1171875,6.5703125 C42.2161463,6.35676977 42.3437492,6.25 42.5,6.25 C42.6562508,6.25 42.7838537,6.35676977 42.8828125,6.5703125 L44.640625,10.125 L48.5625,10.6953125 C48.8541681,10.7421877 49,10.8619782 49,11.0546875 Z" id="" fill="#FFFFFF"></path>
        </g>
    </g>
</svg>